<svg width="49" height="47" viewBox="0 0 49 47" fill="none" xmlns="http://www.w3.org/2000/svg">
<path d="M32.4763 9.14975L34.6054 14.186L40.0306 14.6765C40.2488 14.6985 40.4386 14.8077 40.5695 14.9648L40.5914 14.9945C40.7126 15.1521 40.7721 15.3492 40.7583 15.5483L40.7555 15.5789C40.7448 15.6774 40.7165 15.7732 40.672 15.8615L40.6597 15.8845C40.6208 15.9564 40.5705 16.0215 40.5126 16.078L36.3863 19.7175L37.6017 25.091C37.6453 25.3046 37.6008 25.5173 37.4935 25.6897C37.408 25.8276 37.2837 25.9364 37.1364 26.0023C36.9891 26.0682 36.8257 26.0881 36.6671 26.0595C36.5587 26.0416 36.4553 26.0008 36.3635 25.9398L31.7239 23.1385L27.0464 25.9618C26.8566 26.0729 26.6393 26.0978 26.4439 26.048C26.2355 25.9952 26.0564 25.8612 25.9458 25.6754L25.9296 25.6447C25.8348 25.4696 25.8068 25.2654 25.8509 25.0708L27.0615 19.7175L22.9656 16.1068C22.8853 16.0358 22.8197 15.9495 22.7725 15.8528C22.7252 15.7561 22.6974 15.651 22.6904 15.5435C22.6772 15.3366 22.7417 15.1229 22.8897 14.9524C22.9637 14.8671 23.05 14.801 23.144 14.755C23.2407 14.7071 23.347 14.6803 23.4552 14.6736L28.8415 14.186L30.9782 9.13634C31.0628 8.93648 31.2225 8.77868 31.4222 8.69757C31.6129 8.61997 31.8359 8.61518 32.0418 8.70428L32.0645 8.71482C32.1556 8.75697 32.2344 8.81349 32.2989 8.87863L32.3245 8.90642C32.3871 8.97731 32.4374 9.05682 32.4725 9.14209L32.4763 9.14975ZM0 25.1666H10.1199L9.71471 42.8553H0V25.1666ZM11.7176 41.4269L12.0563 26.7445L18.5964 26.8987C21.3574 27.4659 24.0947 29.0485 26.8272 30.8773L31.907 30.9961C34.2031 31.1906 35.3531 33.5712 33.0835 35.0648C31.2713 36.3418 28.9231 36.2125 26.5198 35.9375C24.8603 35.8158 24.736 38.0691 26.4695 38.117C27.0691 38.1783 27.7276 38.0518 28.2988 38.0643C31.3055 38.1323 33.7961 37.6102 35.3663 35.2477L36.17 33.4697L43.8135 29.8647C47.6238 28.6969 50.2188 32.7541 47.3696 35.4652C41.8039 39.3576 36.113 42.5343 30.3112 45.0711C26.0824 47.5342 21.9153 47.3493 17.8022 44.777L11.7176 41.4269ZM17.0688 10.7056C16.6808 10.5408 16.4986 10.0886 16.6618 9.69677C16.825 9.30495 17.2728 9.12101 17.6609 9.28579L20.846 10.6481C21.234 10.8128 21.4162 11.265 21.253 11.6569C21.1742 11.8451 21.0246 11.9941 20.8372 12.0711C20.6497 12.1482 20.4396 12.147 20.253 12.0678L17.0688 10.7056ZM20.3071 5.69422C20.0101 5.39149 20.011 4.90291 20.3099 4.60305C20.6097 4.3032 21.0936 4.30416 21.3906 4.60593L23.8233 7.08908C24.1203 7.39085 24.1193 7.87943 23.8205 8.17929C23.5206 8.4801 23.0367 8.47819 22.7398 8.17642L20.3071 5.69422ZM25.1896 2.29905C25.0292 1.90531 25.2161 1.45505 25.6061 1.29314C25.996 1.13124 26.442 1.31901 26.6023 1.71275L27.9174 4.94315C27.9555 5.03675 27.975 5.13701 27.9747 5.23822C27.9745 5.33943 27.9545 5.4396 27.9159 5.53301C27.8773 5.62642 27.8209 5.71124 27.7498 5.78263C27.6788 5.85401 27.5945 5.91056 27.5018 5.94905C27.1118 6.11095 26.6649 5.92319 26.5046 5.52945L25.1896 2.29905ZM45.787 9.28579C46.175 9.12101 46.6228 9.30495 46.786 9.69677C46.9492 10.0886 46.768 10.5408 46.379 10.7056L43.1949 12.0678C42.8068 12.2326 42.359 12.0487 42.1958 11.6569C42.1567 11.5636 42.1363 11.4636 42.1357 11.3624C42.135 11.2612 42.1541 11.1609 42.1919 11.0672C42.2297 10.9734 42.2855 10.8882 42.356 10.8163C42.4265 10.7444 42.5104 10.6872 42.6028 10.6481L45.787 9.28579ZM42.0572 4.60593C42.3552 4.30416 42.8391 4.3032 43.1379 4.60305C43.4368 4.90291 43.4387 5.39149 43.1408 5.69422L40.7081 8.17642C40.4111 8.47819 39.9272 8.4801 39.6283 8.17929C39.3295 7.87943 39.3276 7.39085 39.6245 7.08908L42.0572 4.60593ZM36.8455 1.71275C37.0059 1.31901 37.4527 1.13124 37.8417 1.29314C38.2317 1.45505 38.4186 1.90531 38.2583 2.29905L36.9432 5.52945C36.9051 5.62305 36.8491 5.70816 36.7784 5.77991C36.7077 5.85166 36.6237 5.90864 36.5312 5.9476C36.4387 5.98657 36.3395 6.00675 36.2392 6.007C36.139 6.00725 36.0397 5.98756 35.947 5.94905C35.557 5.78715 35.3701 5.33689 35.5305 4.94315L36.8455 1.71275ZM30.9345 1.03544C30.9345 0.609127 31.277 0.262329 31.7002 0.262329C32.1234 0.262329 32.4659 0.609127 32.4659 1.03544V4.52833C32.4659 4.95464 32.1234 5.30144 31.7002 5.30144C31.277 5.30144 30.9345 4.95464 30.9345 4.52833V1.03544Z" fill="white"/>
</svg>
