<svg width="174" height="165" viewBox="0 0 174 165" fill="none" xmlns="http://www.w3.org/2000/svg">
<path fill-rule="evenodd" clip-rule="evenodd" d="M-4.98904 183.717C-4.97219 176.732 -1.11447 169.904 5.16906 162.26L-31.1676 138.62C-33.4587 137.598 -33.4081 136.159 -32.0773 134.461L-24.3787 127.701C-22.9805 126.817 -21.4981 126.436 -19.8977 126.887L24.9462 134.686L62.3105 93.0554L-24.9178 32.3428C-27.1246 31.0083 -27.3099 29.5004 -25.0357 27.75L-12.4518 17.4203L101.258 50.2984L134.849 13.3474C146.119 3.3124 157.069 -1.17649 165.475 0.955297C170.108 2.13385 171.742 3.55504 173.174 8.02659C175.953 16.7964 171.641 28.5819 161.449 40.714L125.533 75.2732L157.49 192.261L147.45 205.208C145.748 207.531 144.283 207.34 142.986 205.087L83.9575 115.361L43.4936 153.785L51.0742 199.922C51.5122 201.551 51.1585 203.076 50.2825 204.532L43.7126 212.453C42.0785 213.822 40.6635 213.874 39.6695 211.517L16.6917 174.133C9.22894 180.615 2.59164 184.584 -4.23097 184.584C-4.85427 184.566 -4.98904 184.341 -4.98904 183.717Z" fill="#EFEFEF" fill-opacity="0.7"/>
</svg>
