<svg width="228" height="169" viewBox="0 0 228 169" fill="none" xmlns="http://www.w3.org/2000/svg">
<path fill-rule="evenodd" clip-rule="evenodd" d="M181.774 112.957C167.275 112.957 155.596 124.9 155.596 139.538C155.596 154.258 167.355 166.119 181.774 166.119C196.263 166.119 207.942 154.176 207.942 139.538C207.942 124.818 196.182 112.957 181.774 112.957ZM-12.0368 27.0677C-10.7422 27.013 -9.82514 26.5802 -9.2965 25.7584C-7.85622 23.5726 -9.81974 21.4086 -11.1845 19.8802C-15.0468 15.5797 -24.5246 5.22014 -26.4287 2.94115C-27.8744 1.31956 -29.935 1.31956 -31.3753 2.94115C-33.3496 5.2804 -43.2967 16.1056 -46.9756 20.2965C-48.2486 21.7538 -49.8237 23.7424 -48.4967 25.7584C-47.9573 26.5802 -47.0457 27.013 -45.7511 27.0677H-38.1667V37.3889C-38.1667 39.5584 -36.4243 41.3333 -34.2882 41.3333H-23.505C-21.3689 41.3333 -19.6212 39.5584 -19.6212 37.3889V27.0677H-12.0368ZM-12.0368 74.8553C-10.7422 74.795 -9.82514 74.3622 -9.2965 73.546C-7.85622 71.3546 -9.81974 69.1907 -11.1845 67.6677C-15.0468 63.3617 -24.5246 53.0022 -26.4287 50.7232C-27.8744 49.1016 -29.935 49.1016 -31.3753 50.7232C-33.3496 53.0625 -43.2967 63.8876 -46.9756 68.0786C-48.2486 69.5358 -49.8237 71.5245 -48.4967 73.546C-47.9573 74.3622 -47.0457 74.795 -45.7511 74.8553H-38.1667V85.1765C-38.1667 87.3404 -36.4243 89.1154 -34.2882 89.1154H-23.505C-21.3689 89.1154 -19.6212 87.3349 -19.6212 85.1765V74.8553H-12.0368ZM9.45403 0.996338H50.5531C52.7108 0.996338 54.4801 2.78775 54.4801 4.98457V38.375C54.4801 40.5664 52.7108 42.3578 50.5531 42.3578H9.45403C7.29631 42.3578 5.53238 40.5664 5.53238 38.375V4.98457C5.53238 2.78775 7.29631 0.996338 9.45403 0.996338ZM67.9388 48.4826H109.038C111.196 48.4826 112.965 50.274 112.965 52.4708V85.8613C112.965 88.0526 111.196 89.844 109.038 89.844H67.9388C65.7811 89.844 64.0172 88.0526 64.0172 85.8613V52.4708C64.0172 50.274 65.7811 48.4826 67.9388 48.4826ZM82.0449 53.0131H94.9318V66.846L88.5504 61.3731L82.0449 66.846V53.0131ZM67.9388 0.996338H109.038C111.196 0.996338 112.965 2.78775 112.965 4.98457V38.375C112.965 40.5664 111.196 42.3578 109.038 42.3578H67.9388C65.7811 42.3578 64.0172 40.5664 64.0172 38.375V4.98457C64.0172 2.78775 65.7811 0.996338 67.9388 0.996338ZM82.0449 5.52144H94.9318V19.3542L88.5504 13.8814L82.0449 19.3542V5.52144ZM9.45403 48.4826H50.5531C52.7108 48.4826 54.4801 50.274 54.4801 52.4708V85.8613C54.4801 88.0526 52.7108 89.844 50.5531 89.844H9.45403C7.29631 89.844 5.53238 88.0526 5.53238 85.8613V52.4708C5.53238 50.274 7.29631 48.4826 9.45403 48.4826ZM23.5547 53.0131H36.447V66.846L30.0656 61.3731L23.5547 66.846V53.0131ZM23.5547 5.52144H36.447V19.3542L30.0656 13.8814L23.5547 19.3542V5.52144ZM31.7971 115.318C17.2973 115.318 5.62409 127.261 5.62409 141.894C5.62409 156.619 17.3836 168.475 31.7971 168.475C46.2916 168.475 57.9702 156.537 57.9702 141.894C57.9702 127.179 46.2107 115.318 31.7971 115.318ZM31.7971 131.671C26.241 131.671 21.7314 136.251 21.7314 141.894C21.7314 147.542 26.241 152.116 31.7971 152.116C37.3533 152.116 41.8629 147.542 41.8629 141.894C41.8629 136.251 37.3533 131.671 31.7971 131.671ZM121.779 98.6422H-48.9984V126.023C-48.9984 132.641 -43.6635 138.064 -37.1364 138.064H-2.77481C-1.90094 129.896 1.7456 122.533 7.19382 116.978L7.21001 116.956L7.24776 116.923C13.5429 110.541 22.2223 106.58 31.7971 106.58C41.3828 106.58 50.0892 110.536 56.3897 116.929C61.8379 122.468 65.4898 129.836 66.3637 138.064H149.08C150.849 97.174 208.584 91.5313 214.464 138.064H227.189C219.858 86.2612 227.2 97.7219 180.998 79.2653C180.604 73.294 179.029 67.2952 176.92 61.395C167.782 35.8112 152.629 38.0354 121.779 37.8162V98.6422ZM151.901 51.7915L137.099 51.5504V79.2653H164.502C163.137 70.2261 159.598 59.5488 151.901 51.7915ZM181.774 129.315C176.213 129.315 171.709 133.895 171.709 139.538C171.709 145.181 176.213 149.761 181.774 149.761C187.325 149.761 191.835 145.181 191.835 139.538C191.835 133.895 187.325 129.315 181.774 129.315Z" fill="#575757" fill-opacity="0.08"/>
</svg>
