<svg width="134" height="171" viewBox="0 0 134 171" fill="none" xmlns="http://www.w3.org/2000/svg">
<path fill-rule="evenodd" clip-rule="evenodd" d="M91.2336 167.42H25.7L18.0017 178.828H98.6535L91.2336 167.42ZM10.7621 189.547L1.80259 202.813H-18L14.169 154.384H8.45259C0.656033 154.384 -5.7319 147.973 -5.7319 140.148V15.0486C-5.71552 7.22375 0.656033 0.812622 8.45259 0.812622H108.727C116.523 0.812622 122.911 7.22375 122.911 15.0486V140.148C122.911 147.973 116.523 154.384 108.727 154.384H103.158L134 202.122H113.772L105.598 189.547H10.7621ZM85.1405 112.038H102.306C104.173 112.038 105.697 113.566 105.697 115.44V132.652C105.697 134.526 104.173 136.055 102.306 136.055H85.1405C83.2733 136.055 81.75 134.526 81.75 132.652V115.424C81.75 113.566 83.2733 112.038 85.1405 112.038ZM13.0879 112.038H30.2534C32.1207 112.038 33.644 113.566 33.644 115.44V132.652C33.644 134.526 32.1207 136.055 30.2534 136.055H13.0879C11.2207 136.055 9.69741 134.526 9.69741 132.652V115.424C9.69741 113.566 11.2207 112.038 13.0879 112.038ZM23.1121 28.2654H93.2319C100.766 28.2654 106.925 34.4464 106.925 42.0247V63.6746C106.925 71.2365 100.766 77.4174 93.2319 77.4174H23.1121C15.5776 77.4174 9.41896 71.2365 9.41896 63.6746V42.0247C9.41896 34.4628 15.5776 28.2654 23.1121 28.2654ZM44.7819 7.05937H71.3164C72.6431 7.05937 73.7241 8.14433 73.7241 9.47587V19.9638C73.7241 21.2954 72.6431 22.3803 71.3164 22.3803H44.7819C43.4552 22.3803 42.3741 21.2954 42.3741 19.9638V9.47587C42.3578 8.14433 43.4388 7.05937 44.7819 7.05937Z" fill="#1E5EBB" fill-opacity="0.5"/>
</svg>
