<svg width="184" height="188" viewBox="0 0 184 188" fill="none" xmlns="http://www.w3.org/2000/svg">
<path d="M37.6394 42.333H43.6742V36.6727H43.7077C43.7077 34.5846 44.5291 32.6864 45.8534 31.3231L45.8367 31.3058C47.1442 29.9598 48.9714 29.1142 51.0165 29.1142H51.0333V29.0797H62.3317V10.7701H62.3652C62.3652 7.9917 63.4716 5.47219 65.2318 3.66021C66.9919 1.84823 69.4226 0.743787 72.1047 0.72653V0.692017H89.2032V0.72653C91.9021 0.72653 94.3495 1.86549 96.1097 3.67747C97.8531 5.48945 98.9427 7.9917 98.9594 10.7528H98.9762V29.0969H110.275V29.1315C112.303 29.1315 114.147 29.977 115.471 31.3576C116.779 32.7036 117.6 34.5846 117.6 36.6555V36.6727H117.617V42.333H123.652V42.2985V42.333C125.848 42.333 127.826 43.2476 129.267 44.7145L129.284 44.6972C130.709 46.164 131.581 48.2004 131.598 50.4783H131.631V83.0594H131.598C131.598 83.8532 131.48 84.6298 131.279 85.3718L154.111 96.7959L130.826 121.214V145.581C134.397 143.735 137.213 140.991 139.862 138.402C145.209 133.191 150.087 128.428 158.519 128.324C168.007 128.221 171.075 133.26 177.613 138.437C178.669 139.282 179.758 140.145 181.217 141.233L181.384 141.353C184.184 143.441 184.821 147.48 182.776 150.361C180.747 153.261 176.825 153.899 174.009 151.811L173.841 151.69C172.751 150.879 171.343 149.757 169.952 148.653C165.158 144.839 163.783 141.163 158.603 141.215C155.15 141.25 151.965 144.356 148.495 147.756C141.94 154.158 134.648 161.268 120.316 160.595C108.196 161.164 101.122 156.16 95.2547 150.724H64.8127C58.6773 155.469 52.0055 159.784 42.2996 159.663C31.2023 159.801 24.0612 154.141 17.1547 148.653C12.3604 144.839 7.71699 141.163 2.53714 141.215C-0.916092 141.25 -4.10111 144.356 -7.57111 147.756C-8.86188 149.015 -10.1862 150.31 -11.6613 151.604C-14.2932 153.934 -18.2493 153.606 -20.4956 150.896C-22.7419 148.187 -22.4401 144.114 -19.8083 141.802C-18.6013 140.732 -17.3944 139.559 -16.2042 138.402C-10.8567 133.191 -5.9786 128.428 2.45332 128.324C11.9413 128.221 18.2778 133.26 24.8155 138.437C27.7659 140.784 30.7665 143.148 34.0353 144.77V120.421L14.2044 96.399L30.8 87.2183C30.1127 86.0103 29.7104 84.5953 29.7104 83.0939H29.6936V50.4955H29.7104C29.7104 48.2176 30.5988 46.164 32.0237 44.6972C32.2752 44.4384 32.5434 44.214 32.8116 44.0069C34.1359 42.9715 35.8122 42.3503 37.6394 42.333V42.2985V42.333ZM42.2996 181.182H42.3667C49.1558 181.286 54.5536 177.006 59.7837 172.847C66.3214 167.653 72.6579 162.614 82.1459 162.735C90.5778 162.821 95.4559 167.584 100.803 172.813C105.547 177.455 110.828 182.597 120.014 182.114C120.131 182.114 120.232 182.114 120.349 182.114C120.467 182.114 120.567 182.114 120.685 182.114C129.854 182.615 135.135 177.455 139.895 172.813C145.243 167.601 150.121 162.838 158.553 162.735C168.041 162.631 171.109 167.653 177.646 172.847C178.702 173.693 179.792 174.556 181.25 175.643L181.401 175.764C184.201 177.834 184.838 181.873 182.826 184.755C180.798 187.636 176.892 188.292 174.092 186.221L173.925 186.101L173.908 186.083L173.891 186.101C172.802 185.289 171.393 184.168 170.002 183.063C165.208 179.25 163.833 175.574 158.653 175.626C155.2 175.66 152.015 178.766 148.545 182.166C141.991 188.568 134.699 195.678 120.366 195.005C106.05 195.678 98.7583 188.568 92.1871 182.166C88.7003 178.766 85.5321 175.677 82.0788 175.626C76.9157 175.574 72.2556 179.267 67.4613 183.063C60.5548 188.551 53.4136 194.211 42.3164 194.073C31.2191 194.211 24.0779 188.551 17.1715 183.063C12.3772 179.25 7.73375 175.574 2.5539 175.626C-0.89933 175.66 -4.08435 178.766 -7.55435 182.166C-8.84512 183.426 -10.1694 184.72 -11.6446 186.014C-14.2764 188.327 -18.2325 188.016 -20.4788 185.307C-22.7251 182.597 -22.4234 178.525 -19.7915 176.212C-18.5846 175.142 -17.3776 173.969 -16.1874 172.813C-10.8399 167.601 -5.96183 162.838 2.47009 162.735C11.9581 162.631 18.2946 167.653 24.8323 172.847C30.0624 176.989 35.4602 181.286 42.2493 181.182H42.2996ZM46.8592 78.331L80.2516 59.8488L117.215 78.331H119.092V55.2239H111.934C111.75 55.2412 111.565 55.2412 111.364 55.2412C107.894 55.2412 105.078 52.342 105.078 48.7698V42.0396H92.7067C89.2367 42.0396 86.4205 39.1405 86.4205 35.5683V13.6347H74.8874V35.5855C74.8874 39.1577 72.0712 42.0569 68.6012 42.0569H56.2299V48.7871H56.2131C56.2131 52.342 53.4137 55.2239 49.9604 55.2239H42.2493V78.331H46.8592Z" fill="#EFEFEF" fill-opacity="0.7"/>
</svg>
