<svg width="41" height="33" viewBox="0 0 41 33" fill="none" xmlns="http://www.w3.org/2000/svg">
<path fill-rule="evenodd" clip-rule="evenodd" d="M36.3855 32.4924H5.17261V27.8928C5.33637 22.5377 10.0527 18.4638 12.9022 13.8314V9.75754H17.6512V12.6815H24.0379V9.75754H28.787V13.8314C31.8657 18.7923 36.3855 22.012 36.3855 27.8271V32.4924ZM40.8071 13.8314C40.8071 13.1086 40.9381 12.3858 40.8399 11.5973C37.3354 12.7472 33.9291 12.4187 30.5884 10.5789C30.4574 11.8273 30.6539 12.9444 31.1124 13.9957C32.2915 16.624 40.7088 17.511 40.8071 13.8314ZM0.783804 13.8314C0.783804 13.1086 0.652795 12.3858 0.751051 11.5973C4.25555 12.7472 7.66178 12.4187 11.0025 10.5789C11.1335 11.8273 10.937 12.9444 10.4785 13.9957C9.2994 16.624 0.849308 17.511 0.783804 13.8314ZM0.685547 10.4803C3.50224 -2.69406 38.4817 -4.27104 40.9381 10.5132C37.5319 11.4659 34.0601 10.9074 30.5884 9.33044C30.6866 8.64051 30.5229 8.08199 30.1626 7.62204C28.0992 5.02659 13.3279 4.92803 11.4283 7.7206C11.1335 8.1477 11.0025 8.67336 11.0353 9.26473C7.59628 11.3674 4.12454 11.8602 0.685547 10.4803ZM16.1446 15.6712C16.9307 15.6712 17.553 16.2954 17.553 17.0839C17.553 17.8724 16.9307 18.4966 16.1446 18.4966C15.3586 18.4966 14.7363 17.8724 14.7363 17.0839C14.769 16.3283 15.3913 15.6712 16.1446 15.6712ZM25.1843 23.5561C25.9703 23.5561 26.5926 24.1804 26.5926 24.9688C26.5926 25.7573 25.9703 26.3816 25.1843 26.3816C24.3982 26.3816 23.7759 25.7573 23.7759 24.9688C23.7759 24.2132 24.3982 23.5561 25.1843 23.5561ZM20.6644 23.5561C21.4505 23.5561 22.0728 24.1804 22.0728 24.9688C22.0728 25.7573 21.4505 26.3816 20.6644 26.3816C19.8784 26.3816 19.2561 25.7573 19.2561 24.9688C19.2561 24.2132 19.8784 23.5561 20.6644 23.5561ZM16.1446 23.5561C16.9307 23.5561 17.553 24.1804 17.553 24.9688C17.553 25.7573 16.9307 26.3816 16.1446 26.3816C15.3586 26.3816 14.7363 25.7573 14.7363 24.9688C14.769 24.2132 15.3913 23.5561 16.1446 23.5561ZM25.1843 19.6137C25.9703 19.6137 26.5926 20.2379 26.5926 21.0264C26.5926 21.8149 25.9703 22.4391 25.1843 22.4391C24.3982 22.4391 23.7759 21.8149 23.7759 21.0264C23.7759 20.2708 24.3982 19.6137 25.1843 19.6137ZM20.6644 19.6137C21.4505 19.6137 22.0728 20.2379 22.0728 21.0264C22.0728 21.8149 21.4505 22.4391 20.6644 22.4391C19.8784 22.4391 19.2561 21.8149 19.2561 21.0264C19.2561 20.2708 19.8784 19.6137 20.6644 19.6137ZM16.1446 19.6137C16.9307 19.6137 17.553 20.2379 17.553 21.0264C17.553 21.8149 16.9307 22.4391 16.1446 22.4391C15.3586 22.4391 14.7363 21.8149 14.7363 21.0264C14.769 20.2708 15.3913 19.6137 16.1446 19.6137ZM25.1843 15.6712C25.9703 15.6712 26.5926 16.2954 26.5926 17.0839C26.5926 17.8724 25.9703 18.4966 25.1843 18.4966C24.3982 18.4966 23.7759 17.8724 23.7759 17.0839C23.7759 16.3283 24.3982 15.6712 25.1843 15.6712ZM20.6644 15.6712C21.4505 15.6712 22.0728 16.2954 22.0728 17.0839C22.0728 17.8724 21.4505 18.4966 20.6644 18.4966C19.8784 18.4966 19.2561 17.8724 19.2561 17.0839C19.2561 16.3283 19.8784 15.6712 20.6644 15.6712Z" fill="#277EFF"/>
</svg>
