<svg width="56" height="42" viewBox="0 0 56 42" fill="none" xmlns="http://www.w3.org/2000/svg">
<path fill-rule="evenodd" clip-rule="evenodd" d="M10.327 17.2976H0.988952C0.726356 17.2992 0.475027 17.4045 0.289768 17.5906C0.10451 17.7767 0.000349059 18.0285 0 18.2911L0 36.4386C0.000356221 36.7012 0.104519 36.953 0.289776 37.1391C0.475033 37.3252 0.726359 37.4306 0.988952 37.4321H10.327C10.5896 37.4305 10.8409 37.3252 11.0262 37.1391C11.2114 36.953 11.3156 36.7012 11.316 36.4386V18.2866C11.3147 18.0247 11.2101 17.7739 11.0249 17.5887C10.8397 17.4035 10.5889 17.2989 10.327 17.2976ZM5.66027 23.3042C5.46774 23.306 5.27677 23.2696 5.09835 23.1973C4.91992 23.1249 4.75756 23.018 4.6206 22.8827C4.48364 22.7474 4.37478 22.5863 4.30029 22.4088C4.22579 22.2312 4.18713 22.0407 4.18653 21.8482C4.18593 21.6556 4.2234 21.4649 4.29679 21.2869C4.37017 21.1089 4.47802 20.9472 4.61413 20.811C4.75025 20.6748 4.91194 20.5669 5.08991 20.4934C5.26788 20.42 5.45862 20.3824 5.65115 20.383H5.66027V20.3602C5.85358 20.3602 6.04499 20.3982 6.22359 20.4722C6.40219 20.5462 6.56446 20.6546 6.70115 20.7913C6.83784 20.928 6.94627 21.0903 7.02025 21.2689C7.09423 21.4475 7.1323 21.6389 7.1323 21.8322C7.1323 22.0255 7.09423 22.2169 7.02025 22.3955C6.94627 22.5741 6.83784 22.7364 6.70115 22.8731C6.56446 23.0098 6.40219 23.1182 6.22359 23.1922C6.04499 23.2662 5.85358 23.3042 5.66027 23.3042Z" fill="#277EFF"/>
<path fill-rule="evenodd" clip-rule="evenodd" d="M13.5938 35.7459V18.92H21.1636C24.3537 19.4943 27.5803 21.2352 30.7887 23.2541H36.6678C39.3293 23.4136 40.7193 26.1116 38.1352 27.8844C36.0753 29.3929 33.3546 29.3109 30.57 29.0602C28.6468 28.9645 28.5602 31.5485 30.57 31.5577C31.2627 31.6124 32.0192 31.4483 32.6846 31.4483C36.1619 31.4483 39.0285 30.7783 40.7831 28.0302L41.6627 25.9566L50.4083 21.618C54.7834 20.1779 57.8915 24.758 54.6694 27.9391C48.5725 32.3983 42.0495 36.2437 35.1957 39.4191C30.374 42.3541 25.5478 42.2538 20.7215 39.4191L13.5938 35.7459Z" fill="#277EFF"/>
<path fill-rule="evenodd" clip-rule="evenodd" d="M47.2782 15.1921L47.096 14.1621C47.0724 14.0328 47.0007 13.9172 46.8954 13.8385C46.8422 13.798 46.7809 13.7693 46.7156 13.7544C46.6504 13.7395 46.5827 13.7386 46.5172 13.7519L45.7698 13.8796C45.6968 13.7229 45.6146 13.5708 45.5237 13.4238C45.436 13.2737 45.3369 13.1305 45.2274 12.9954L45.6832 12.2981C45.7232 12.2472 45.752 12.1884 45.7677 12.1256C45.7835 12.0628 45.7857 11.9973 45.7743 11.9336C45.7484 11.8029 45.6733 11.6871 45.5647 11.61L44.717 11.0175H44.6897L44.7079 11.0449C44.602 10.9686 44.4702 10.9373 44.3413 10.9577C44.2124 10.9782 44.0968 11.0489 44.0197 11.1542C44.0152 11.1588 44.0152 11.1634 44.0106 11.1679L43.5549 11.7923C43.3941 11.724 43.2279 11.6691 43.0581 11.6282C42.8849 11.5872 42.7209 11.5507 42.5431 11.5234L42.4064 10.7031C42.3828 10.5737 42.3112 10.4581 42.2059 10.3795C42.1515 10.3413 42.0899 10.3147 42.0248 10.3013C41.9597 10.288 41.8926 10.2882 41.8276 10.302L40.8022 10.4843C40.6729 10.5079 40.5573 10.5795 40.4786 10.6848C40.4379 10.738 40.4091 10.7993 40.3941 10.8645C40.3792 10.9298 40.3785 10.9975 40.392 11.0631L40.5288 11.8287C40.3699 11.8972 40.2174 11.9795 40.073 12.0748C39.9229 12.1625 39.7797 12.2615 39.6446 12.3711L38.9474 11.9153C38.8962 11.8759 38.8372 11.8478 38.7744 11.8329C38.7115 11.818 38.6462 11.8165 38.5828 11.8287C38.5175 11.8401 38.4552 11.8645 38.3996 11.9005C38.344 11.9366 38.2962 11.9834 38.2592 12.0384L37.6667 12.8815C37.626 12.9346 37.5972 12.9959 37.5822 13.0612C37.5673 13.1265 37.5666 13.1942 37.5801 13.2598C37.5891 13.3252 37.6126 13.3878 37.6489 13.443C37.6852 13.4981 37.7333 13.5445 37.7898 13.5788L38.4141 14.0345C38.3459 14.1953 38.291 14.3614 38.2501 14.5313C38.2045 14.6908 38.1635 14.8548 38.1316 15.0189L37.3113 15.1602C37.2467 15.1704 37.1848 15.1934 37.1292 15.2278C37.0737 15.2622 37.0256 15.3074 36.9877 15.3607C36.9485 15.4137 36.9213 15.4745 36.9079 15.5391C36.8945 15.6036 36.8953 15.6702 36.9102 15.7344L37.0925 16.7644C37.1161 16.8937 37.1877 17.0093 37.293 17.088C37.3463 17.1285 37.4076 17.1571 37.4728 17.1721C37.538 17.187 37.6057 17.1878 37.6713 17.1745L38.4187 17.0424C38.4871 17.2013 38.5695 17.3538 38.6648 17.4981C38.7523 17.6571 38.8513 17.8094 38.961 17.9539L38.4779 18.642C38.4395 18.6946 38.412 18.7544 38.3971 18.8178C38.3822 18.8812 38.3803 18.947 38.3913 19.0112C38.4174 19.1406 38.4925 19.2549 38.601 19.3302L39.4578 19.9318C39.511 19.9706 39.5717 19.9979 39.636 20.0121C39.7003 20.0262 39.7669 20.0268 39.8315 20.0138C39.9634 19.9904 40.0819 19.919 40.1642 19.8133L40.6199 19.1752C40.7822 19.2435 40.9499 19.2984 41.1212 19.3393C41.2888 19.3856 41.4593 19.4206 41.6316 19.4441L41.7729 20.2644C41.7965 20.3938 41.8681 20.5093 41.9734 20.588C42.0264 20.6272 42.0873 20.6544 42.1518 20.6678C42.2163 20.6812 42.283 20.6804 42.3471 20.6655L43.3771 20.4832C43.5064 20.4596 43.622 20.388 43.7007 20.2827C43.7414 20.2304 43.7702 20.1699 43.7852 20.1054C43.8001 20.0408 43.8008 19.9738 43.7873 19.909L43.646 19.1205C43.8039 19.0519 43.9563 18.9711 44.1017 18.879C44.2521 18.7879 44.398 18.683 44.5575 18.5828L45.2456 19.0385C45.2979 19.0792 45.3584 19.108 45.4229 19.123C45.4875 19.1379 45.5545 19.1386 45.6193 19.1251C45.6849 19.1146 45.7476 19.0906 45.8033 19.0545C45.859 19.0184 45.9066 18.971 45.9429 18.9154L46.5445 18.0586C46.5837 18.0057 46.6109 17.9448 46.6242 17.8803C46.6376 17.8158 46.6368 17.7491 46.622 17.6849C46.5986 17.553 46.5272 17.4345 46.4214 17.3523L45.7834 16.9193C45.8559 16.7581 45.9123 16.5902 45.952 16.418C45.9961 16.2498 46.0311 16.0794 46.0568 15.9075L46.8772 15.7663C47.0065 15.7427 47.1221 15.671 47.2008 15.5657C47.2399 15.5128 47.2671 15.4519 47.2805 15.3874C47.2939 15.3229 47.2931 15.2563 47.2782 15.1921ZM44.0699 15.9121C44.0094 16.1742 43.9013 16.4229 43.7508 16.6459C43.597 16.8598 43.4036 17.0424 43.1812 17.1837C42.9563 17.3335 42.7011 17.4315 42.4338 17.4708C42.1661 17.5255 41.8902 17.5255 41.6225 17.4708C41.3673 17.4114 41.1249 17.3064 40.907 17.1608C40.6928 17.0059 40.5089 16.8128 40.3647 16.5912C40.2202 16.3637 40.1225 16.1096 40.0776 15.8438C40.0365 15.5694 40.0457 15.2899 40.1049 15.0189C40.1639 14.7628 40.2706 14.52 40.4194 14.3034C40.5739 14.0903 40.7653 13.9067 40.9845 13.7611C41.2133 13.6157 41.4691 13.5181 41.7365 13.4739L41.7182 13.4694C41.9859 13.4147 42.2618 13.4147 42.5295 13.4694C42.7859 13.5275 43.0288 13.6342 43.245 13.7838C43.4598 13.9348 43.6426 14.1269 43.7827 14.349C43.9338 14.5748 44.0319 14.8319 44.0699 15.1009C44.12 15.369 44.12 15.6441 44.0699 15.9121Z" fill="#277EFF"/>
<path fill-rule="evenodd" clip-rule="evenodd" d="M32.0884 7.7271C32.1196 7.8773 32.1394 8.02965 32.1476 8.18284C32.1522 8.38253 32.1292 8.5819 32.0793 8.7753C32.052 8.95278 32.0062 9.12692 31.9425 9.29484C31.8788 9.45339 31.801 9.60591 31.7101 9.75058C31.6181 9.8993 31.5113 10.0383 31.3911 10.1653C31.2787 10.2892 31.1534 10.4007 31.0174 10.498C30.7412 10.6913 30.4324 10.8333 30.1059 10.9173H30.0786C29.9083 10.9447 29.7361 10.9584 29.5636 10.9583C29.0309 10.9828 28.5037 10.841 28.0551 10.5527C27.9053 10.4622 27.7662 10.3552 27.6404 10.2337C27.5154 10.1224 27.4038 9.99696 27.3077 9.85998C27.2126 9.7235 27.1302 9.57858 27.0616 9.42703C26.9883 9.26726 26.9304 9.10094 26.8884 8.93027V8.89835C26.8537 8.7363 26.8324 8.57168 26.8246 8.40615C26.8096 8.04747 26.8669 7.68945 26.9932 7.3534C27.0569 7.19484 27.1347 7.04232 27.2257 6.89766C27.3192 6.74883 27.4276 6.60988 27.5492 6.48294C27.6605 6.358 27.7859 6.24636 27.9229 6.15025C28.0646 6.05057 28.2176 5.96797 28.3787 5.90415C28.5369 5.83092 28.7017 5.77293 28.8709 5.73097H28.9028C29.0636 5.69824 29.2266 5.67692 29.3904 5.66717C29.5689 5.66341 29.7473 5.67562 29.9236 5.70362C30.1011 5.7309 30.2752 5.77672 30.4432 5.84035L30.4523 5.80844C30.6108 5.87215 30.7633 5.94994 30.908 6.04087C31.0549 6.13545 31.1936 6.24216 31.3227 6.35989C31.4454 6.47347 31.5568 6.59861 31.6554 6.73359C31.7507 6.87795 31.8331 7.03046 31.9015 7.18933C31.9799 7.35155 32.0425 7.52096 32.0884 7.6952V7.7271Z" fill="#277EFF"/>
<path fill-rule="evenodd" clip-rule="evenodd" d="M37.7077 8.53825C37.6747 8.38136 37.6079 8.23358 37.5117 8.1053C37.4195 7.97127 37.3007 7.85762 37.1627 7.77138C37.0247 7.68515 36.8705 7.62817 36.7096 7.60399L35.9166 7.47183V7.42169C35.9031 7.27757 35.8803 7.13447 35.8483 6.9933C35.8164 6.86114 35.789 6.72442 35.7526 6.59225V6.51933L36.5091 5.96789C36.6452 5.88193 36.7604 5.76672 36.8463 5.63064C36.9311 5.49086 36.9883 5.33617 37.015 5.17491C37.0469 5.01546 37.0469 4.85127 37.015 4.69182C36.9736 4.53702 36.9058 4.39054 36.8145 4.25887L35.903 2.98281C35.8077 2.84949 35.6868 2.73641 35.5475 2.65012L35.5566 2.66835C35.4197 2.57696 35.2639 2.51776 35.1009 2.49517C34.9414 2.46326 34.7772 2.46326 34.6178 2.49517C34.4529 2.52751 34.2973 2.596 34.1621 2.69569L33.5058 3.15143L33.4693 3.12408C33.36 3.04205 33.2415 2.96002 33.1139 2.87343L32.7538 2.641L32.6855 2.60454L32.8359 1.69307C32.8632 1.53168 32.8632 1.36684 32.8359 1.20545C32.7999 1.04094 32.7301 0.885733 32.6308 0.749712C32.5409 0.613361 32.4208 0.499527 32.2799 0.417024C32.1389 0.335662 31.9846 0.280103 31.8241 0.252958L30.2472 0.0205086C30.0889 -0.00683621 29.9271 -0.00683621 29.7687 0.0205086C29.6135 0.0582942 29.4666 0.124757 29.3358 0.216476C29.2028 0.308448 29.0896 0.426238 29.0031 0.562837C28.9117 0.699725 28.8525 0.855535 28.8299 1.01857L28.7023 1.807H28.643C28.4972 1.82981 28.3559 1.84802 28.2147 1.87992L27.7999 1.98018L27.7635 2.05766L27.212 1.29658C27.1236 1.16253 27.0088 1.0478 26.8748 0.959329C26.735 0.874606 26.5803 0.817373 26.419 0.790706C26.2601 0.754238 26.0949 0.754238 25.936 0.790706C25.7724 0.82705 25.6175 0.895182 25.4802 0.991231L24.2042 1.90271C24.0708 1.99803 23.9578 2.11886 23.8715 2.25818C23.7801 2.39507 23.7209 2.55088 23.6983 2.71392C23.6664 2.86416 23.6664 3.01942 23.6983 3.16966C23.7343 3.33416 23.8041 3.48937 23.9034 3.6254L24.2953 4.29533L24.268 4.33635C24.1814 4.44117 24.0993 4.56422 24.0173 4.68727C23.9353 4.81032 23.8578 4.92881 23.7849 5.05186L23.7439 5.12022L22.8324 4.96982C22.6729 4.93795 22.5088 4.93795 22.3493 4.96982C22.1857 5.00618 22.0309 5.07431 21.8936 5.17035C21.7599 5.26461 21.6469 5.38519 21.5615 5.52468C21.476 5.66417 21.42 5.81965 21.3968 5.98156L21.1416 7.55386C21.1143 7.70454 21.1143 7.85891 21.1416 8.0096C21.1723 8.17417 21.2392 8.32984 21.3376 8.46533C21.4295 8.59834 21.5473 8.71148 21.6839 8.79802C21.8237 8.88275 21.9784 8.93998 22.1397 8.96665L22.9281 9.09425V9.02589C22.9418 9.16717 22.9737 9.30389 23.001 9.44973C23.0284 9.59556 23.0648 9.73684 23.0967 9.86901C23.0922 9.89464 23.0922 9.92087 23.0967 9.94651L22.3447 10.4797C22.2132 10.5763 22.0978 10.6932 22.0029 10.8261C21.9182 10.9659 21.861 11.1206 21.8343 11.2818C21.7979 11.4408 21.7979 11.6059 21.8343 11.7649C21.8706 11.9285 21.9388 12.0833 22.0348 12.2206L22.9463 13.5241C23.0457 13.6486 23.166 13.755 23.3018 13.8385C23.4418 13.9218 23.5965 13.9775 23.7575 14.0026C23.9154 14.0345 24.0781 14.0345 24.236 14.0026C24.4 13.9751 24.5557 13.9113 24.6918 13.8157H24.7191L25.3663 13.36L25.4073 13.3919C25.5121 13.4739 25.6306 13.5514 25.7582 13.6425L26.1228 13.8704C26.1434 13.8874 26.1665 13.9012 26.1911 13.9114L26.0362 14.8229C26.0043 14.9824 26.0043 15.1465 26.0362 15.306C26.0725 15.4696 26.1407 15.6244 26.2367 15.7617C26.3312 15.8948 26.4519 16.0071 26.5914 16.0918C26.7309 16.1764 26.8863 16.2316 27.0479 16.2539L28.6202 16.5137C28.7781 16.5456 28.9408 16.5456 29.0988 16.5137C29.254 16.4759 29.4009 16.4095 29.5317 16.3177C29.6644 16.2269 29.7763 16.1088 29.8598 15.9714C29.9512 15.8345 30.0104 15.6787 30.033 15.5156L30.1606 14.7272C30.1801 14.7318 30.2004 14.7318 30.2199 14.7272C30.3657 14.7044 30.5024 14.6816 30.6483 14.6543C30.7941 14.6269 30.9354 14.5905 31.0675 14.5586C31.0916 14.5631 31.1164 14.5631 31.1405 14.5586L31.6782 15.3105C31.7687 15.4473 31.8866 15.5638 32.0246 15.6523C32.1653 15.7351 32.3196 15.7922 32.4803 15.821C32.6424 15.8574 32.8105 15.8574 32.9725 15.821C33.1366 15.7814 33.2914 15.7102 33.4283 15.6113L34.7134 14.6999C34.973 14.4998 35.1459 14.2078 35.1965 13.8841C35.2284 13.7262 35.2284 13.5635 35.1965 13.4056C35.1691 13.2416 35.1052 13.0859 35.0097 12.9498V12.9225L34.5539 12.2753L34.5858 12.2343C34.6679 12.1295 34.7499 12.0064 34.8319 11.8834C34.914 11.7603 34.9915 11.6419 35.0644 11.5188C35.0735 11.5006 35.1054 11.4732 35.1054 11.4504L36.0169 11.6008C36.1763 11.6327 36.3405 11.6327 36.4999 11.6008C36.6635 11.5645 36.8184 11.4964 36.9557 11.4003C37.09 11.3068 37.2035 11.1864 37.289 11.0467C37.3745 10.9071 37.4302 10.7513 37.4524 10.5891L37.7076 9.0168C37.7396 8.85888 37.7396 8.69617 37.7077 8.53825ZM29.5409 12.845C28.3402 12.8445 27.1886 12.3687 26.3378 11.5215C25.4871 10.6742 25.0064 9.5246 25.001 8.32396C24.9956 7.12332 25.4658 5.96938 26.3089 5.11451C27.1519 4.25963 28.2992 3.77339 29.4998 3.76212H29.5089L29.5317 3.77579C30.1272 3.77519 30.717 3.89189 31.2674 4.11922C31.8178 4.34655 32.318 4.68007 32.7395 5.10072C33.161 5.52137 33.4955 6.02093 33.724 6.57086C33.9524 7.12079 34.0703 7.71034 34.0709 8.30583C34.0715 8.90132 33.9548 9.4911 33.7275 10.0415C33.5001 10.5919 33.1666 11.0921 32.746 11.5136C32.3253 11.9351 31.8258 12.2696 31.2758 12.4981C30.7259 12.7265 30.1363 12.8444 29.5409 12.845Z" fill="#277EFF"/>
<path fill-rule="evenodd" clip-rule="evenodd" d="M32.1476 8.18284C32.1522 8.38253 32.1292 8.5819 32.0793 8.7753C32.052 8.95278 32.0062 9.12692 31.9425 9.29484C31.8788 9.45339 31.801 9.60591 31.7101 9.75058C31.6181 9.8993 31.5113 10.0383 31.3911 10.1653C31.2787 10.2892 31.1534 10.4007 31.0174 10.498C30.7412 10.6913 30.4324 10.8333 30.1059 10.9173H30.0786C29.9083 10.9447 29.7361 10.9584 29.5636 10.9583C29.0309 10.9828 28.5037 10.841 28.0551 10.5527C27.9053 10.4622 27.7662 10.3552 27.6404 10.2337C27.5154 10.1224 27.4038 9.99696 27.3077 9.85998C27.2126 9.7235 27.1302 9.57858 27.0616 9.42703C26.9883 9.26726 26.9304 9.10094 26.8884 8.93027V8.89835C26.8537 8.7363 26.8324 8.57168 26.8246 8.40615C26.8096 8.04747 26.8669 7.68945 26.9932 7.3534C27.0569 7.19484 27.1347 7.04232 27.2257 6.89766C27.3192 6.74883 27.4276 6.60988 27.5492 6.48294C27.6605 6.358 27.7859 6.24636 27.9229 6.15025C28.0646 6.05057 28.2176 5.96797 28.3787 5.90415C28.5369 5.83092 28.7017 5.77293 28.8709 5.73097H28.9028C29.0636 5.69824 29.2266 5.67692 29.3904 5.66717C29.5689 5.66341 29.7473 5.67562 29.9236 5.70362C30.1011 5.7309 30.2752 5.77672 30.4432 5.84035L30.4523 5.80844C30.6108 5.87215 30.7633 5.94994 30.908 6.04087C31.0549 6.13545 31.1936 6.24216 31.3227 6.35989C31.4454 6.47347 31.5568 6.59861 31.6554 6.73359C31.7507 6.87795 31.8331 7.03046 31.9015 7.18933C31.9799 7.35155 32.0425 7.52096 32.0884 7.6952V7.7271C32.1196 7.8773 32.1394 8.02965 32.1476 8.18284Z" fill="#277EFF"/>
<path fill-rule="evenodd" clip-rule="evenodd" d="M32.1476 8.18284C32.1522 8.38253 32.1292 8.5819 32.0793 8.7753C32.052 8.95278 32.0062 9.12692 31.9425 9.29484C31.8788 9.45339 31.801 9.60591 31.7101 9.75058C31.6181 9.8993 31.5113 10.0383 31.3911 10.1653C31.2787 10.2892 31.1534 10.4007 31.0174 10.498C30.7412 10.6913 30.4324 10.8333 30.1059 10.9173H30.0786C29.9083 10.9447 29.7361 10.9584 29.5636 10.9583C29.0309 10.9828 28.5037 10.841 28.0551 10.5527C27.9053 10.4622 27.7662 10.3552 27.6404 10.2337C27.5154 10.1224 27.4038 9.99696 27.3077 9.85998C27.2126 9.7235 27.1302 9.57858 27.0616 9.42703C26.9883 9.26726 26.9304 9.10094 26.8884 8.93027V8.89835C26.8537 8.7363 26.8324 8.57168 26.8246 8.40615C26.8096 8.04747 26.8669 7.68945 26.9932 7.3534C27.0569 7.19484 27.1347 7.04232 27.2257 6.89766C27.3192 6.74883 27.4276 6.60988 27.5492 6.48294C27.6605 6.358 27.7859 6.24636 27.9229 6.15025C28.0646 6.05057 28.2176 5.96797 28.3787 5.90415C28.5369 5.83092 28.7017 5.77293 28.8709 5.73097H28.9028C29.0636 5.69824 29.2266 5.67692 29.3904 5.66717C29.5689 5.66341 29.7473 5.67562 29.9236 5.70362C30.1011 5.7309 30.2752 5.77672 30.4432 5.84035L30.4523 5.80844C30.6108 5.87215 30.7633 5.94994 30.908 6.04087C31.0549 6.13545 31.1936 6.24216 31.3227 6.35989C31.4454 6.47347 31.5568 6.59861 31.6554 6.73359C31.7507 6.87795 31.8331 7.03046 31.9015 7.18933C31.9799 7.35155 32.0425 7.52096 32.0884 7.6952V7.7271C32.1196 7.8773 32.1394 8.02965 32.1476 8.18284Z" fill="#277EFF"/>
</svg>
