<svg width="46" height="51" viewBox="0 0 46 51" fill="none" xmlns="http://www.w3.org/2000/svg">
<path d="M21.8438 12.3499V9.07995C21.0534 8.87174 20.3323 8.46045 19.7532 7.88754C19.1741 7.31464 18.7576 6.60039 18.5455 5.8168C18.3334 5.03321 18.3333 4.20799 18.5452 3.42436C18.7571 2.64073 19.1736 1.92638 19.7525 1.35335C20.1834 0.924384 20.6955 0.584023 21.2593 0.351784C21.8231 0.119546 22.4275 0 23.0379 0C23.6484 0 24.2528 0.119546 24.8166 0.351784C25.3804 0.584023 25.8925 0.924384 26.3234 1.35335C26.9126 1.93622 27.3336 2.66513 27.5426 3.4642C27.7515 4.26327 27.7408 5.1033 27.5115 5.89686C27.2821 6.69041 26.8426 7.40848 26.2386 7.97632C25.6347 8.54417 24.8883 8.94103 24.0773 9.1256V12.2254L24.0062 12.1922C23.8799 12.1581 23.7513 12.1332 23.6214 12.1175C23.4487 12.1076 23.2755 12.1076 23.1028 12.1175H23.0442C22.9043 12.117 22.7645 12.1267 22.626 12.1465C22.5298 12.1465 22.4126 12.188 22.283 12.2212C22.1404 12.2532 22.0006 12.2962 21.8647 12.3499H21.8313H21.8438ZM14.3151 19.6158L22.7933 14.906L22.8978 14.8645C22.9856 14.8363 23.0774 14.8223 23.1697 14.823C23.2487 14.8222 23.3275 14.832 23.4039 14.8521C23.4708 14.8657 23.5336 14.8941 23.588 14.9351L31.9783 19.7528C32.1795 19.8293 32.3449 19.9771 32.4425 20.1677C32.53 20.334 32.5732 20.5197 32.568 20.7072V30.4215C32.5578 30.5809 32.5067 30.7351 32.4196 30.8694C32.3325 31.0038 32.2123 31.1138 32.0703 31.1891L23.6423 36.0483C23.5816 36.081 23.5169 36.1061 23.4499 36.123C23.2821 36.1727 23.1033 36.1727 22.9355 36.123C22.8529 36.0996 22.774 36.0646 22.7013 36.0193L14.0809 31.0397C13.9428 30.9649 13.8256 30.857 13.7402 30.7258C13.6547 30.5946 13.6036 30.4444 13.5915 30.2887V20.5205C13.5924 20.3129 13.6627 20.1114 13.7914 19.9477C13.9201 19.784 14.0999 19.6673 14.3026 19.6158H14.3151ZM22.2621 33.6457V26.0436L15.4737 22.0392V29.6911L22.2537 33.6457H22.2621ZM30.6984 22.1554L24.1359 26.0478V33.654L30.6984 29.8156V22.1554ZM23.1697 16.7899L16.7661 20.5827L23.199 24.4252L29.4394 20.6906L23.1697 16.7899ZM24.1401 41.9076C24.9647 42.1103 25.718 42.5321 26.3192 43.1276C26.7516 43.5551 27.0946 44.0631 27.3287 44.6225C27.5628 45.1818 27.6833 45.7815 27.6833 46.3871C27.6833 46.9928 27.5628 47.5924 27.3287 48.1518C27.0946 48.7111 26.7516 49.2191 26.3192 49.6466C25.8883 50.0756 25.3762 50.416 24.8124 50.6482C24.2487 50.8805 23.6442 51 23.0338 51C22.4233 51 21.8189 50.8805 21.2551 50.6482C20.6913 50.416 20.1793 50.0756 19.7483 49.6466C19.316 49.2191 18.9729 48.7111 18.7388 48.1518C18.5047 47.5924 18.3842 46.9928 18.3842 46.3871C18.3842 45.7815 18.5047 45.1818 18.7388 44.6225C18.9729 44.0631 19.316 43.5551 19.7483 43.1276C20.3449 42.5325 21.0941 42.1106 21.9149 41.9076V38.6709C22.0052 38.7075 22.0973 38.7394 22.191 38.7663L22.3499 38.8078C22.4567 38.8387 22.5658 38.8609 22.6762 38.8742C22.8504 38.9024 23.0266 38.9177 23.2032 38.9199C23.3797 38.9179 23.5559 38.9026 23.7302 38.8742C23.8718 38.8549 24.0117 38.8243 24.1484 38.7829V41.9076H24.1401ZM24.7424 44.6878C24.2867 44.2413 23.6721 43.9909 23.0317 43.9909C22.3912 43.9909 21.7766 44.2413 21.321 44.6878C20.8707 45.1406 20.6182 45.7511 20.6182 46.3871C20.6182 47.0232 20.8707 47.6337 21.321 48.0864C21.7766 48.5329 22.3912 48.7833 23.0317 48.7833C23.6721 48.7833 24.2867 48.5329 24.7424 48.0864C25.1947 47.6347 25.4486 47.0238 25.4486 46.3871C25.4486 45.7504 25.1947 45.1395 24.7424 44.6878ZM24.7424 2.90116C24.2867 2.45465 23.6721 2.20426 23.0317 2.20426C22.3912 2.20426 21.7766 2.45465 21.321 2.90116C20.8707 3.3539 20.6182 3.96437 20.6182 4.60043C20.6182 5.23649 20.8707 5.84697 21.321 6.2997C21.7772 6.74845 22.3934 7.00046 23.0359 7.00099C23.5143 7.00031 23.9819 6.85903 24.3795 6.59498C24.7771 6.33093 25.087 5.95594 25.27 5.51734C25.453 5.07874 25.5009 4.59619 25.4078 4.13058C25.3146 3.66496 25.0845 3.23716 24.7465 2.90116H24.7424ZM41.3389 31.3012C42.5722 31.3018 43.7547 31.7884 44.6264 32.6539C45.0588 33.0815 45.4019 33.5895 45.636 34.1488C45.87 34.7082 45.9905 35.3078 45.9905 35.9135C45.9905 36.5191 45.87 37.1188 45.636 37.6781C45.4019 38.2375 45.0588 38.7455 44.6264 39.173C43.8938 39.8997 42.9375 40.363 41.9093 40.4892C40.8811 40.6155 39.8399 40.3976 38.9507 39.87C38.0616 39.3424 37.3754 38.5354 37.0011 37.577C36.6268 36.6186 36.5857 35.5636 36.8844 34.5794L34.1616 33.0191C34.3976 32.7992 34.6017 32.5478 34.768 32.2722C34.847 32.138 34.9183 31.9995 34.9814 31.8572C35.0473 31.7236 35.1018 31.5848 35.1445 31.4423C35.1839 31.3183 35.216 31.1923 35.2407 31.0646L38.0221 32.6581L38.0472 32.629C38.9202 31.7629 40.1043 31.2763 41.3389 31.2763V31.3012ZM43.0496 34.2059C42.7104 33.8712 42.2789 33.6436 41.8094 33.5519C41.34 33.4603 40.8538 33.5086 40.412 33.6908C39.9702 33.873 39.5928 34.181 39.3272 34.5758C39.0617 34.9707 38.92 35.4347 38.92 35.9093C38.92 36.384 39.0617 36.848 39.3272 37.2428C39.5928 37.6377 39.9702 37.9456 40.412 38.1278C40.8538 38.3101 41.34 38.3584 41.8094 38.2667C42.2789 38.175 42.7104 37.9475 43.0496 37.6127C43.5019 37.1611 43.7558 36.5502 43.7558 35.9135C43.7558 35.2768 43.5019 34.6659 43.0496 34.2142V34.2059ZM4.82064 31.3012C6.02959 31.3008 7.19101 31.7682 8.05797 32.6042L10.9189 30.9443L10.944 31.0439L11.0109 31.297C11.0619 31.4643 11.1277 31.6268 11.2075 31.7825C11.2531 31.8953 11.3091 32.0036 11.3748 32.1062C11.5424 32.3785 11.7448 32.6282 11.9771 32.849L12.0022 32.8739L9.24165 34.4549C9.57801 35.4427 9.56724 36.5145 9.21109 37.4954C8.85494 38.4764 8.1744 39.3088 7.28039 39.857C6.38637 40.4051 5.33158 40.6367 4.28792 40.514C3.24425 40.3913 2.27324 39.9216 1.53312 39.1813C0.882087 38.5354 0.438733 37.7125 0.259116 36.8166C0.0795001 35.9207 0.171689 34.992 0.524026 34.1481C0.876363 33.3042 1.47302 32.5829 2.23856 32.0754C3.00409 31.5679 3.90412 31.297 4.82482 31.297L4.82064 31.3012ZM6.53132 34.2059C6.07605 33.7571 5.46033 33.5053 4.81855 33.5053C4.17677 33.5053 3.56104 33.7571 3.10577 34.2059C2.65445 34.6581 2.40127 35.2688 2.40127 35.9052C2.40127 36.5416 2.65445 37.1522 3.10577 37.6044H3.09323C3.54956 38.0512 4.16488 38.3017 4.806 38.3017C5.44712 38.3017 6.06244 38.0512 6.51877 37.6044C6.97137 37.1521 7.22535 36.5405 7.22535 35.9031C7.22535 35.2657 6.97137 34.6541 6.51877 34.2018L6.53132 34.2059ZM41.3389 10.4244C42.2605 10.4225 43.1619 10.6922 43.9288 11.1993C44.6956 11.7065 45.2933 12.4282 45.646 13.273C45.9986 14.1177 46.0904 15.0473 45.9096 15.9439C45.7289 16.8405 45.2837 17.6636 44.6306 18.3087C44.1987 18.7374 43.6859 19.0775 43.1214 19.3096C42.557 19.5416 41.952 19.661 41.341 19.661C40.73 19.661 40.125 19.5416 39.5606 19.3096C38.9961 19.0775 38.4833 18.7374 38.0514 18.3087L37.9886 18.2548L35.2239 19.8316C35.1471 19.481 35.0174 19.1438 34.8391 18.8316C34.6502 18.4885 34.4073 18.1776 34.1197 17.9103L36.8719 16.3335C36.6342 15.5383 36.6179 14.694 36.8248 13.8903C37.0318 13.0867 37.4542 12.3536 38.0472 11.7689C38.4783 11.3396 38.9907 10.9991 39.5549 10.7669C40.119 10.5348 40.7239 10.4156 41.3347 10.4161L41.3389 10.4244ZM43.0496 13.3292C42.5945 12.8816 41.9797 12.6306 41.3389 12.6306C40.6981 12.6306 40.0833 12.8816 39.6282 13.3292C39.1734 13.7798 38.9177 14.3913 38.9173 15.029C38.9169 15.6668 39.1719 16.2786 39.6261 16.7298C40.0804 17.181 40.6967 17.4347 41.3395 17.4351C41.9823 17.4355 42.599 17.1825 43.0538 16.7319C43.2788 16.5087 43.4572 16.2438 43.579 15.9523C43.7008 15.6607 43.7634 15.3482 43.7634 15.0326C43.7634 14.717 43.7008 14.4045 43.579 14.1129C43.4572 13.8213 43.2788 13.5564 43.0538 13.3333L43.0496 13.3292ZM4.82064 10.4244C5.43241 10.4215 6.03863 10.5396 6.60384 10.7719C7.16904 11.0041 7.68188 11.3459 8.11234 11.7772C8.54605 12.2033 8.88997 12.7107 9.12406 13.27C9.35815 13.8292 9.47775 14.4291 9.47587 15.0347C9.47551 15.4008 9.432 15.7657 9.34621 16.1219L12.0984 17.7817C11.9734 17.8884 11.8573 18.005 11.7512 18.1303C11.5249 18.3869 11.3375 18.6749 11.1949 18.9851L11.082 19.2341C11.0318 19.3793 10.9858 19.5204 10.9481 19.649L8.31729 18.0639C8.25337 18.1411 8.18494 18.2145 8.11234 18.2838C7.69084 18.7497 7.17819 19.1257 6.60559 19.3887C6.03299 19.6518 5.41241 19.7966 4.78164 19.8141C4.15086 19.8317 3.52308 19.7218 2.93649 19.491C2.34991 19.2602 1.81679 18.9134 1.3696 18.4717C0.922403 18.03 0.570479 17.5027 0.335246 16.9217C0.100013 16.3408 -0.0136078 15.7185 0.00129785 15.0926C0.0162035 14.4667 0.159324 13.8504 0.421949 13.2811C0.684574 12.7119 1.06121 12.2016 1.52893 11.7814C1.96002 11.3521 2.47239 11.0115 3.03658 10.7794C3.60078 10.5472 4.20566 10.428 4.81646 10.4286L4.82064 10.4244ZM6.53132 13.3292C6.07499 12.8824 5.45966 12.6319 4.81855 12.6319C4.17743 12.6319 3.56211 12.8824 3.10577 13.3292H3.09323C2.64291 13.7819 2.39042 14.3924 2.39042 15.0284C2.39042 15.6645 2.64291 16.275 3.09323 16.7277C3.43193 17.0647 3.86388 17.2943 4.33429 17.3874C4.80471 17.4805 5.2924 17.4329 5.73551 17.2507C6.17863 17.0684 6.55721 16.7597 6.82325 16.3637C7.08928 15.9677 7.23079 15.5023 7.22982 15.0264C7.23091 14.7115 7.16942 14.3996 7.04884 14.1083C6.92827 13.8171 6.75098 13.5523 6.52714 13.3292H6.53132Z" fill="#277EFF"/>
</svg>
