<svg width="46" height="44" viewBox="0 0 46 44" fill="none" xmlns="http://www.w3.org/2000/svg">
<path d="M9.6329 27.5502L7.51436 32.4021C7.46492 32.5161 7.38296 32.6138 7.27829 32.6835C7.17361 32.7531 7.05064 32.7918 6.92408 32.795L1.59449 33.2635L5.65727 36.7336C5.84594 36.8953 5.91782 37.1397 5.86571 37.3638L4.66538 42.5075L9.29328 39.8003C9.50891 39.6737 9.76946 39.6825 9.97071 39.8003L14.6004 42.5075L14.073 40.2521C14.5115 40.3004 14.9634 40.2688 15.4027 40.151L16.0029 42.7272C16.02 42.8389 16.02 42.954 16.0011 43.0692C15.9781 43.2079 15.9287 43.3411 15.8555 43.4621C15.702 43.7131 15.4528 43.8943 15.1628 43.9657C14.8852 44.0343 14.5789 43.9982 14.3102 43.8418L9.632 41.1056L4.99421 43.8198C4.89359 43.884 4.78038 43.9332 4.65909 43.9631L4.57464 43.9833C4.44526 44.0061 4.306 44.0061 4.16584 43.9798L4.12092 43.9718C3.82084 43.9033 3.57556 43.7222 3.42193 43.4831C3.26659 43.2415 3.21282 42.9505 3.27189 42.671L4.49108 37.4508L0.386974 33.9446C0.27916 33.8524 0.187518 33.7381 0.12283 33.6124C0.0623955 33.4969 0.0231659 33.372 0.00693039 33.2432L0.00243816 33.1861C-0.0173277 32.8952 0.0841969 32.6192 0.266582 32.4065C0.44717 32.1955 0.706821 32.0505 1.00331 32.018L6.45419 31.5424L8.5907 26.6457C8.64743 26.5137 8.72981 26.3937 8.83328 26.2924C8.91773 26.208 9.01836 26.1368 9.13066 26.0815C9.1711 26.0604 9.21242 26.0428 9.25645 26.0296C9.52239 25.9364 9.8063 25.9496 10.0525 26.0463C10.2995 26.1439 10.5125 26.3267 10.6401 26.5745L12.3309 30.4429L11.8395 32.5462C11.8035 32.5023 11.7748 32.4539 11.7523 32.4021L9.6329 27.5502ZM3.67799 13.3409C3.16587 13.1299 2.92509 12.5533 3.14072 12.0523C3.35634 11.5513 3.94662 11.3158 4.45874 11.5267L8.65718 13.2671C9.1693 13.478 9.41008 14.0555 9.19446 14.5556C8.97883 15.0566 8.38855 15.2922 7.87643 15.0812L3.67799 13.3409ZM7.94741 6.93853C7.55569 6.55266 7.55748 5.9286 7.9519 5.54537C8.34632 5.16215 8.98422 5.1639 9.37594 5.54977L12.5834 8.72106C12.9751 9.10693 12.9733 9.73099 12.5789 10.1142C12.1845 10.4974 11.5466 10.4957 11.1549 10.1098L7.94741 6.93853ZM14.3848 2.60173C14.1737 2.09896 14.4189 1.52324 14.9328 1.31669C15.4476 1.11013 16.0352 1.35009 16.2473 1.85285L17.9813 5.97958C18.1924 6.48235 17.9462 7.05807 17.4323 7.26462C16.9184 7.47118 16.3299 7.23122 16.1188 6.72846L14.3848 2.60173ZM41.5413 11.5267C42.0534 11.3158 42.6437 11.5513 42.8593 12.0523C43.0749 12.5533 42.8341 13.1299 42.322 13.3409L38.1236 15.0812C37.6115 15.2922 37.0212 15.0566 36.8055 14.5556C36.5899 14.0555 36.8307 13.478 37.3428 13.2671L41.5413 11.5267ZM36.6241 5.54977C37.0158 5.1639 37.6537 5.16215 38.0481 5.54537C38.4425 5.9286 38.4443 6.55266 38.0526 6.93853L34.8451 10.1098C34.4534 10.4957 33.8155 10.4974 33.4211 10.1142C33.0267 9.73099 33.0249 9.10693 33.4166 8.72106L36.6241 5.54977ZM29.7527 1.85285C29.9648 1.35009 30.5524 1.11013 31.0672 1.31669C31.5811 1.52324 31.8263 2.09896 31.6152 2.60173L29.8812 6.72846C29.6701 7.23122 29.0816 7.47118 28.5677 7.26462C28.0538 7.05807 27.8076 6.48235 28.0187 5.97958L29.7527 1.85285ZM21.9587 0.987954C21.9587 0.442997 22.4106 0 22.9686 0C23.5256 0 23.9784 0.442997 23.9784 0.987954V5.44957C23.9784 5.99452 23.5256 6.43752 22.9686 6.43752C22.4106 6.43752 21.9587 5.99452 21.9587 5.44957V0.987954ZM24.1401 11.9214L27.3709 19.3214L35.5971 20.0421C35.9287 20.0746 36.2162 20.2337 36.4156 20.4658L36.4489 20.5088C36.6259 20.7347 36.7229 21.0213 36.7004 21.3227L36.6968 21.3676C36.6807 21.517 36.6357 21.6568 36.5702 21.7833L36.5513 21.8167C36.492 21.9213 36.4165 22.018 36.3294 22.1006L30.0708 27.45L31.9144 35.3448C31.98 35.6586 31.9135 35.9707 31.75 36.2247C31.3852 36.796 30.6063 36.9569 30.0357 36.5921L23 32.4759L15.9059 36.6246C15.6298 36.7817 15.3019 36.8271 14.9921 36.7512C14.339 36.5903 13.9463 35.9504 14.0928 35.3158L15.9292 27.45L9.71735 22.1428C9.59563 22.0387 9.49609 21.9122 9.4244 21.7704C9.35271 21.6286 9.3103 21.4744 9.29957 21.3166C9.27891 21.0125 9.37774 20.6969 9.60145 20.4473C9.71376 20.3225 9.84583 20.2249 9.98778 20.1572C10.1342 20.0869 10.296 20.0465 10.4595 20.0377L18.6291 19.3214L21.868 11.9011C22.0009 11.5961 22.2498 11.3703 22.5418 11.256C23.1725 11.0072 23.8778 11.3079 24.1356 11.9099L24.1401 11.9214ZM37.4147 26.6589L39.5458 31.5424L44.9967 32.018C45.2932 32.0505 45.5528 32.1964 45.7334 32.4065C45.9158 32.6192 46.0173 32.8952 45.9976 33.1861L45.9931 33.2432C45.9768 33.372 45.9376 33.4969 45.8772 33.6124C45.8125 33.7381 45.7217 33.8515 45.613 33.9446L41.5089 37.4508L42.7281 42.671C42.7892 42.9602 42.7281 43.2493 42.5781 43.4831C42.4253 43.7213 42.1792 43.9033 41.8791 43.9718L41.8342 43.9798C41.694 44.0061 41.5556 44.0061 41.4254 43.9833L41.3409 43.9631C41.2196 43.9332 41.1064 43.8848 41.0058 43.8198L36.3671 41.1056L31.6898 43.8418C31.563 43.9163 31.4224 43.9656 31.2761 43.9869C31.1298 44.0081 30.9806 44.0009 30.8372 43.9657C30.5586 43.8971 30.3044 43.7231 30.1445 43.4621C30.069 43.3381 30.0205 43.2045 29.998 43.0709L29.9971 43.0639C29.9782 42.954 29.9791 42.8406 29.9971 42.729L30.5982 40.1484C30.6961 40.1747 30.7967 40.1967 30.8974 40.2143C31.2343 40.2741 31.582 40.2881 31.927 40.2503L31.3996 42.5075L36.0284 39.8003C36.2305 39.6825 36.4902 39.6737 36.7058 39.8003L41.3346 42.5075L40.1334 37.3638C40.0822 37.1397 40.1541 36.8953 40.3427 36.7336L44.4055 33.2635L39.0759 32.795C38.9494 32.7918 38.8264 32.7531 38.7217 32.6835C38.617 32.6138 38.5351 32.5161 38.4856 32.4021L36.3671 27.5502L34.2495 32.4021C34.2261 32.4557 34.1947 32.5058 34.1578 32.5506L33.6673 30.449L35.3599 26.5745C35.4875 26.3267 35.7005 26.1439 35.9475 26.0463C36.1946 25.9496 36.4785 25.9364 36.7444 26.0296C36.7885 26.0437 36.8307 26.0612 36.8702 26.0823C36.9834 26.1377 37.0823 26.2089 37.1667 26.2924C37.2709 26.3952 37.3536 26.5165 37.4093 26.6457L37.4147 26.6589Z" fill="#277EFF"/>
</svg>
