<svg width="55" height="47" viewBox="0 0 55 47" fill="none" xmlns="http://www.w3.org/2000/svg">
<path d="M49.5963 32.1657C49.6809 32.1886 49.7598 32.2292 49.8277 32.2848C49.8956 32.3403 49.951 32.4096 49.9902 32.488C50.1245 32.7611 50.0708 33.1685 49.8112 33.755L49.7977 33.7819L48.8486 35.3443C48.5126 35.9522 48.0988 36.5136 47.6174 37.0143C47.352 37.2738 47.0376 37.478 46.6924 37.6148C46.3473 37.7516 45.9784 37.8183 45.6072 37.8112C44.8932 37.8155 44.2056 37.5408 43.6911 37.0456C43.2215 36.5805 42.8178 36.0533 42.4912 35.4786L41.6585 34.1579C41.3953 33.8046 41.2314 33.3872 41.184 32.9491C41.1773 32.8001 41.2049 32.6516 41.2645 32.5149C41.3267 32.3795 41.4261 32.2646 41.5511 32.1836C41.6144 32.1422 41.6819 32.1077 41.7525 32.0806C41.6963 31.2895 41.6828 30.4959 41.7122 29.7033C41.7314 29.5217 41.7658 29.3419 41.8152 29.1661C42.0466 28.416 42.5474 27.7781 43.221 27.3753C43.4584 27.2245 43.7123 27.1013 43.9776 27.0082C45.5759 26.4306 47.6935 26.744 48.8262 27.9707C49.3264 28.5343 49.6145 29.2546 49.641 30.0077L49.5963 32.1657ZM6.70208 38.7334L8.18844 43.1119L8.9361 40.5153L8.56899 40.1123C8.49316 40.0272 8.44254 39.9226 8.42277 39.8104C8.403 39.6981 8.41487 39.5825 8.45706 39.4766C8.65405 39.0826 9.06593 39.1587 9.45096 39.1587C9.85389 39.1587 10.3508 39.0826 10.4762 39.5885C10.4927 39.6808 10.4897 39.7755 10.4674 39.8665C10.445 39.9575 10.4038 40.0428 10.3464 40.1168L9.97924 40.5198L10.7269 43.1164L12.0745 38.7379C12.8221 39.4095 14.6891 39.6691 16.0008 40.0228C16.3424 39.3327 16.892 38.7674 17.5722 38.4066C19.0094 37.6052 22.873 37.3679 24.1803 36.195L26.177 42.0733L27.1799 38.5857L26.6874 38.0484C26.5855 37.9348 26.5177 37.7947 26.4915 37.6443C26.4654 37.4939 26.4821 37.3392 26.5397 37.1978C26.8083 36.6695 27.359 36.768 27.8738 36.768C28.4155 36.768 29.0826 36.6651 29.2527 37.3411C29.2756 37.4646 29.2719 37.5916 29.2418 37.7136C29.2117 37.8356 29.1559 37.9497 29.0781 38.0484L28.5857 38.5857L29.5885 42.0733L31.3972 36.195C32.7045 37.3679 36.5682 37.6052 38.0053 38.4066C38.4697 38.6571 38.8769 39.0017 39.2006 39.4184C39.3149 39.5705 39.4181 39.7306 39.5096 39.8974C40.7586 39.602 42.2674 39.3289 42.921 38.7424L44.4119 43.1209L45.1595 40.5242L44.7924 40.1213C44.7166 40.0362 44.666 39.9316 44.6462 39.8193C44.6264 39.707 44.6383 39.5915 44.6805 39.4856C44.8775 39.0916 45.2894 39.1677 45.6744 39.1677C46.0773 39.1677 46.5743 39.0916 46.6996 39.5975C46.7162 39.6897 46.7132 39.7844 46.6908 39.8754C46.6684 39.9664 46.6272 40.0517 46.5698 40.1258L46.2027 40.5287L46.9503 43.1254L48.2979 38.7469C49.2694 39.6199 52.1481 39.799 53.2182 40.3944C53.5645 40.58 53.868 40.8362 54.1091 41.1465C54.5161 41.7204 54.7478 42.4 54.7761 43.103L55 45.2743C54.9974 45.4057 54.9684 45.5352 54.9149 45.6552C54.8614 45.7752 54.7844 45.8833 54.6884 45.973C54.5924 46.0627 54.4794 46.1323 54.356 46.1776C54.2327 46.223 54.1015 46.2431 53.9703 46.2369H39.1827C39.129 46.2458 39.0753 46.2503 39.0216 46.2548H16.5694C16.5157 46.2503 16.4619 46.2458 16.4082 46.2369H1.02971C0.898458 46.2431 0.767288 46.223 0.64395 46.1777C0.520613 46.1323 0.40761 46.0628 0.311618 45.973C0.215627 45.8833 0.138594 45.7752 0.0850711 45.6552C0.0315484 45.5352 0.00262164 45.4057 0 45.2743L0.22385 43.103C0.25083 42.3998 0.482688 41.7198 0.890924 41.1465C1.13071 40.835 1.43452 40.5785 1.78185 40.3944C2.85185 39.781 5.73057 39.6064 6.70208 38.7334ZM13.3639 32.1657C13.4485 32.1886 13.5274 32.2292 13.5953 32.2848C13.6632 32.3403 13.7186 32.4096 13.7578 32.488C13.8921 32.7611 13.8384 33.1685 13.5788 33.755L13.5653 33.7819L12.6162 35.3443C12.2802 35.9522 11.8664 36.5136 11.385 37.0143C11.1196 37.2738 10.8052 37.478 10.46 37.6148C10.1149 37.7516 9.74603 37.8183 9.37485 37.8112C8.66076 37.8155 7.97321 37.5408 7.45869 37.0456C6.98911 36.5805 6.58541 36.0533 6.25885 35.4786L5.42613 34.1579C5.16287 33.8046 4.99901 33.3872 4.95157 32.9491C4.94493 32.8001 4.9725 32.6516 5.03215 32.5149C5.09433 32.3795 5.1937 32.2646 5.31868 32.1836C5.382 32.1422 5.44953 32.1077 5.52015 32.0806C5.46386 31.2895 5.45041 30.4959 5.47985 29.7033C5.499 29.5217 5.53345 29.3419 5.58282 29.1661C5.81579 28.4169 6.31614 27.7795 6.9886 27.3753C7.22602 27.2245 7.47987 27.1013 7.74522 27.0082C9.34351 26.4306 11.4611 26.744 12.5938 27.9707C13.094 28.5343 13.3821 29.2546 13.4086 30.0077L13.3639 32.1657ZM6.07082 32.5238C5.94288 32.5249 5.81761 32.5605 5.70818 32.6268C5.65798 32.6603 5.61776 32.7067 5.59178 32.7611C5.5625 32.8287 5.55021 32.9025 5.55596 32.976C5.59817 33.3154 5.73119 33.6371 5.94099 33.9072L5.94546 33.9117L6.75132 35.1921C7.04731 35.7116 7.41171 36.1889 7.83476 36.6113C8.2502 37.01 8.80352 37.233 9.37932 37.2336C9.68108 37.2387 9.98084 37.1839 10.2613 37.0725C10.5418 36.9611 10.7974 36.7952 11.0134 36.5845C11.4493 36.1291 11.824 35.6189 12.1282 35.0668L13.037 33.5714C13.2251 33.1416 13.2833 32.873 13.2161 32.7432C13.1669 32.6447 12.9923 32.6178 12.7013 32.6447C12.6529 32.6482 12.6046 32.6373 12.5625 32.6134C12.5177 32.6134 12.4729 32.6134 12.4237 32.6089L12.455 32.4567C12.455 32.4477 12.4505 32.4432 12.4505 32.4343C12.4464 32.3825 12.4589 32.3307 12.4864 32.2865L12.6923 31.2479C11.2256 31.2965 9.78005 30.8882 8.55556 30.0794C8.11681 29.7973 7.9825 29.475 7.53928 29.5063C7.21883 29.5631 6.92524 29.7216 6.70208 29.9585C6.46482 30.2276 6.29996 30.5527 6.22304 30.9031L6.42898 32.5283C6.31155 32.5606 6.1874 32.559 6.07082 32.5238ZM33.1567 27.3708C33.2701 27.4024 33.3757 27.4574 33.4667 27.5321C33.5577 27.6069 33.632 27.6999 33.685 27.8051C33.8641 28.1677 33.7924 28.7184 33.4432 29.5063C33.4382 29.5187 33.4322 29.5307 33.4253 29.5421L32.1538 31.6374C31.7035 32.4539 31.1481 33.208 30.5018 33.8804C30.1454 34.229 29.7231 34.5031 29.2596 34.6868C28.7961 34.8705 28.3007 34.9601 27.8022 34.9504C26.8443 34.9542 25.9226 34.5848 25.2324 33.9206C24.6047 33.295 24.0628 32.589 23.6207 31.8209L22.5059 30.0436C22.1507 29.5694 21.931 29.0077 21.8702 28.4184C21.8617 28.2183 21.9001 28.0191 21.9821 27.8364C22.0667 27.6546 22.2 27.4996 22.3671 27.3887C22.4519 27.331 22.5436 27.2843 22.6402 27.2499C22.5637 26.1892 22.5458 25.125 22.5865 24.0623C22.6111 23.8169 22.6575 23.5742 22.7253 23.337C23.037 22.3313 23.7079 21.4756 24.6101 20.9329C24.93 20.7323 25.2708 20.5672 25.6264 20.4404C27.7709 19.6659 30.6138 20.0867 32.1359 21.7342C32.8083 22.4905 33.1948 23.4583 33.2283 24.4697L33.1567 27.3708ZM23.2222 27.7827C23.0452 27.7843 22.872 27.8338 22.7208 27.9259C22.6523 27.9724 22.5968 28.0356 22.5596 28.1095C22.5196 28.2027 22.5012 28.3037 22.5059 28.405C22.564 28.8763 22.748 29.3233 23.0387 29.6988L23.0431 29.7078L24.1579 31.4852C24.57 32.2042 25.0742 32.8665 25.6577 33.455C26.2317 34.0096 26.9996 34.3181 27.7977 34.3146C28.2161 34.3223 28.6319 34.2467 29.0208 34.0922C29.4097 33.9378 29.764 33.7075 30.0631 33.4147C30.6671 32.7834 31.1863 32.076 31.6077 31.3106L32.8657 29.2377C33.1254 28.6423 33.2059 28.2707 33.1164 28.0871C33.0492 27.9528 32.8075 27.9125 32.4046 27.9528C32.3372 27.9594 32.2696 27.9437 32.212 27.908C32.1479 27.911 32.0835 27.9095 32.0195 27.9036L32.0598 27.6931C32.0598 27.6842 32.0554 27.6707 32.0554 27.6618C32.0481 27.591 32.0655 27.5198 32.1046 27.4603L32.3911 26.0187C30.3574 26.0881 28.3527 25.5216 26.6561 24.3981C26.0472 24.0086 25.8592 23.5609 25.2458 23.6056C24.8017 23.6837 24.3948 23.9036 24.0863 24.2324C23.759 24.6072 23.5312 25.0583 23.4237 25.5442L23.7057 27.7961C23.546 27.8322 23.3797 27.8275 23.2222 27.7827ZM42.2987 32.5238C42.1708 32.5249 42.0455 32.5605 41.9361 32.6268C41.8859 32.6603 41.8457 32.7067 41.8197 32.7611C41.7904 32.8287 41.7781 32.9025 41.7839 32.976C41.8261 33.3154 41.9591 33.6371 42.1689 33.9072L42.1734 33.9117L42.9792 35.1921C43.2752 35.7116 43.6396 36.1889 44.0627 36.6113C44.4781 37.01 45.0314 37.233 45.6072 37.2336C45.909 37.2387 46.2088 37.1839 46.4892 37.0725C46.7697 36.9611 47.0253 36.7952 47.2413 36.5845C47.6772 36.1291 48.0519 35.6189 48.3561 35.0668L49.265 33.5714C49.453 33.1416 49.5112 32.873 49.444 32.7432C49.3948 32.6447 49.2202 32.6178 48.9292 32.6447C48.8808 32.6482 48.8325 32.6373 48.7904 32.6134C48.7456 32.6134 48.7009 32.6134 48.6516 32.6089L48.6829 32.4567C48.6829 32.4477 48.6785 32.4432 48.6785 32.4343C48.6743 32.3825 48.6868 32.3307 48.7143 32.2865L48.9202 31.2479C47.4535 31.2965 46.008 30.8882 44.7835 30.0794C44.3447 29.7973 44.2104 29.475 43.7672 29.5063C43.4468 29.5631 43.1532 29.7216 42.93 29.9585C42.6927 30.2276 42.5279 30.5527 42.451 30.9031L42.6569 32.5283C42.5395 32.5606 42.4153 32.559 42.2987 32.5238Z" fill="#277EFF"/>
<path d="M28.7248 2.76121L31.6859 2.98193L29.4151 4.88689L30.1055 7.77188L27.6033 6.21209L25.0805 7.77188L25.7883 4.88689L23.5176 2.96805L26.4782 2.76121L27.6002 0.000244141L28.7248 2.76121Z" fill="#277EFF"/>
<path d="M48.7056 13.3143L46.887 15.6643L48.1777 18.3353L45.3859 17.3311L43.2427 19.4017L43.3327 16.4339L40.7168 15.0295L43.5637 14.1838L44.0916 11.2607L45.7588 13.7146L48.7024 13.3143H48.7056Z" fill="#277EFF"/>
<path d="M40.6306 3.99626L40.2339 6.93989L42.6873 8.61026L39.7679 9.12467L38.9257 11.9752L37.5249 9.35927L34.5566 9.4488L36.6102 7.30566L35.6025 4.51067L38.277 5.80139L40.6239 3.97925L40.6306 3.99626Z" fill="#277EFF"/>
<path d="M6.29492 13.3174L9.23855 13.7177L10.9089 11.2643L11.4403 14.1837L14.2909 15.0156L11.6749 16.42L11.7645 19.3878L9.6182 17.3172L6.82276 18.3214L8.11348 15.6468L6.29492 13.3174Z" fill="#277EFF"/>
<path d="M14.5775 3.97925L16.9243 5.79781L19.5989 4.50709L18.5983 7.29895L20.6689 9.44209L17.6836 9.3521L16.3034 11.968L15.4715 9.11751L12.5449 8.58967L14.9813 6.90228L14.5775 3.97925Z" fill="#277EFF"/>
</svg>
